<mxfile host="app.diagrams.net" modified="2021-03-26T14:28:59.808Z" agent="5.0 (Windows NT 10.0; Win64; x64) AppleWebKit/537.36 (KHTML, like Gecko) Chrome/88.0.4324.104 Safari/537.36" etag="jszYXEFG3oBdwQboyvdK" version="14.5.1" type="github">
  <diagram id="ceikMv7BAlOUGOiXaDph" name="Page-1">
    <mxGraphModel dx="1116" dy="629" grid="1" gridSize="10" guides="1" tooltips="1" connect="1" arrows="1" fold="1" page="1" pageScale="1" pageWidth="827" pageHeight="1169" math="0" shadow="0">
      <root>
        <mxCell id="0" />
        <mxCell id="1" parent="0" />
        <mxCell id="zwOd97OeujrbQa21lKcu-10" style="edgeStyle=orthogonalEdgeStyle;rounded=0;orthogonalLoop=1;jettySize=auto;html=1;" edge="1" parent="1" source="zwOd97OeujrbQa21lKcu-1">
          <mxGeometry relative="1" as="geometry">
            <mxPoint x="220" y="230" as="targetPoint" />
          </mxGeometry>
        </mxCell>
        <mxCell id="zwOd97OeujrbQa21lKcu-11" style="edgeStyle=orthogonalEdgeStyle;rounded=0;orthogonalLoop=1;jettySize=auto;html=1;exitX=1;exitY=0;exitDx=0;exitDy=0;" edge="1" parent="1" source="zwOd97OeujrbQa21lKcu-1">
          <mxGeometry relative="1" as="geometry">
            <mxPoint x="330" y="230" as="targetPoint" />
          </mxGeometry>
        </mxCell>
        <mxCell id="zwOd97OeujrbQa21lKcu-1" value="" style="rounded=1;whiteSpace=wrap;html=1;fillColor=#f5f5f5;strokeColor=#666666;fontColor=#333333;" vertex="1" parent="1">
          <mxGeometry x="110" y="250" width="220" height="80" as="geometry" />
        </mxCell>
        <mxCell id="zwOd97OeujrbQa21lKcu-13" style="edgeStyle=orthogonalEdgeStyle;rounded=0;orthogonalLoop=1;jettySize=auto;html=1;exitX=0.25;exitY=0;exitDx=0;exitDy=0;" edge="1" parent="1" source="zwOd97OeujrbQa21lKcu-2">
          <mxGeometry relative="1" as="geometry">
            <mxPoint x="475" y="220" as="targetPoint" />
          </mxGeometry>
        </mxCell>
        <mxCell id="zwOd97OeujrbQa21lKcu-14" style="edgeStyle=orthogonalEdgeStyle;rounded=0;orthogonalLoop=1;jettySize=auto;html=1;exitX=0.5;exitY=0;exitDx=0;exitDy=0;" edge="1" parent="1" source="zwOd97OeujrbQa21lKcu-2">
          <mxGeometry relative="1" as="geometry">
            <mxPoint x="530" y="220" as="targetPoint" />
          </mxGeometry>
        </mxCell>
        <mxCell id="zwOd97OeujrbQa21lKcu-15" style="edgeStyle=orthogonalEdgeStyle;rounded=0;orthogonalLoop=1;jettySize=auto;html=1;exitX=0.75;exitY=0;exitDx=0;exitDy=0;" edge="1" parent="1" source="zwOd97OeujrbQa21lKcu-2">
          <mxGeometry relative="1" as="geometry">
            <mxPoint x="585" y="220" as="targetPoint" />
          </mxGeometry>
        </mxCell>
        <mxCell id="zwOd97OeujrbQa21lKcu-2" value="" style="rounded=1;whiteSpace=wrap;html=1;fillColor=#f5f5f5;strokeColor=#666666;fontColor=#333333;" vertex="1" parent="1">
          <mxGeometry x="420" y="250" width="220" height="80" as="geometry" />
        </mxCell>
        <mxCell id="zwOd97OeujrbQa21lKcu-3" value="" style="rounded=1;whiteSpace=wrap;html=1;fillColor=none;" vertex="1" parent="1">
          <mxGeometry x="120" y="350" width="60" height="20" as="geometry" />
        </mxCell>
        <mxCell id="zwOd97OeujrbQa21lKcu-4" value="masked summary&amp;nbsp;" style="rounded=1;whiteSpace=wrap;html=1;fillColor=none;" vertex="1" parent="1">
          <mxGeometry x="120" y="350" width="60" height="20" as="geometry" />
        </mxCell>
        <mxCell id="zwOd97OeujrbQa21lKcu-5" value="source" style="rounded=1;whiteSpace=wrap;html=1;fillColor=none;" vertex="1" parent="1">
          <mxGeometry x="210" y="350" width="120" height="20" as="geometry" />
        </mxCell>
        <mxCell id="zwOd97OeujrbQa21lKcu-8" value="expaned summary" style="rounded=1;whiteSpace=wrap;html=1;fillColor=none;" vertex="1" parent="1">
          <mxGeometry x="440" y="350" width="150" height="20" as="geometry" />
        </mxCell>
        <mxCell id="zwOd97OeujrbQa21lKcu-19" style="edgeStyle=orthogonalEdgeStyle;rounded=0;orthogonalLoop=1;jettySize=auto;html=1;entryX=0;entryY=0.5;entryDx=0;entryDy=0;" edge="1" parent="1" source="zwOd97OeujrbQa21lKcu-12" target="zwOd97OeujrbQa21lKcu-18">
          <mxGeometry relative="1" as="geometry" />
        </mxCell>
        <mxCell id="zwOd97OeujrbQa21lKcu-12" value="masked prediction" style="rounded=1;whiteSpace=wrap;html=1;fillColor=none;" vertex="1" parent="1">
          <mxGeometry x="210" y="210" width="120" height="20" as="geometry" />
        </mxCell>
        <mxCell id="zwOd97OeujrbQa21lKcu-20" style="edgeStyle=orthogonalEdgeStyle;rounded=0;orthogonalLoop=1;jettySize=auto;html=1;entryX=1;entryY=0.5;entryDx=0;entryDy=0;" edge="1" parent="1" source="zwOd97OeujrbQa21lKcu-16" target="zwOd97OeujrbQa21lKcu-18">
          <mxGeometry relative="1" as="geometry" />
        </mxCell>
        <mxCell id="zwOd97OeujrbQa21lKcu-16" value="sumamry generation" style="rounded=1;whiteSpace=wrap;html=1;fillColor=none;" vertex="1" parent="1">
          <mxGeometry x="414" y="180" width="220" height="30" as="geometry" />
        </mxCell>
        <mxCell id="zwOd97OeujrbQa21lKcu-21" style="edgeStyle=orthogonalEdgeStyle;rounded=0;orthogonalLoop=1;jettySize=auto;html=1;" edge="1" parent="1" source="zwOd97OeujrbQa21lKcu-18">
          <mxGeometry relative="1" as="geometry">
            <mxPoint x="380" y="40" as="targetPoint" />
          </mxGeometry>
        </mxCell>
        <mxCell id="zwOd97OeujrbQa21lKcu-18" value="pointer-generator" style="ellipse;whiteSpace=wrap;html=1;aspect=fixed;fillColor=none;" vertex="1" parent="1">
          <mxGeometry x="310" y="60" width="80" height="80" as="geometry" />
        </mxCell>
        <mxCell id="zwOd97OeujrbQa21lKcu-22" value="最终的分布" style="rounded=1;whiteSpace=wrap;html=1;fillColor=none;" vertex="1" parent="1">
          <mxGeometry x="399" y="30" width="250" height="20" as="geometry" />
        </mxCell>
      </root>
    </mxGraphModel>
  </diagram>
</mxfile>
